PathFileType	4	(X/Y/Z)	s01c0302.trc
DataRate	CameraRate	NumFrames	NumMarkers	Units	OrigDataRate	OrigDataStartFrame	OrigNumFrames
200	200	7	48	mm	200	250	2000
Frame#	Time	racr			lacr			c7			jug			rlel			rdr			llel			ldr			s2			lic			ric			lasi			rasi			rpsi			lpsi			rgt			lgt			rth1			rth2			rth3			rth4			rlfc			rsh1			rsh2			rsh3			rsh4			rlmal			rmmal			rcal			rtoe			rmt5			lth1			lth2			lth4			lth3			llfc			lsh1			lsh2			lsh3			lsh4			llmal			lmmal			lcal			ltoe			lmt5			SBIKE			LBIKE			RBIKE			
		X1	Y1	Z1	X2	Y2	Z2	X3	Y3	Z3	X4	Y4	Z4	X5	Y5	Z5	X6	Y6	Z6	X7	Y7	Z7	X8	Y8	Z8	X9	Y9	Z9	X10	Y10	Z10	X11	Y11	Z11	X12	Y12	Z12	X13	Y13	Z13	X14	Y14	Z14	X15	Y15	Z15	X16	Y16	Z16	X17	Y17	Z17	X18	Y18	Z18	X19	Y19	Z19	X20	Y20	Z20	X21	Y21	Z21	X22	Y22	Z22	X23	Y23	Z23	X24	Y24	Z24	X25	Y25	Z25	X26	Y26	Z26	X27	Y27	Z27	X28	Y28	Z28	X29	Y29	Z29	X30	Y30	Z30	X31	Y31	Z31	X32	Y32	Z32	X33	Y33	Z33	X34	Y34	Z34	X35	Y35	Z35	X36	Y36	Z36	X37	Y37	Z37	X38	Y38	Z38	X39	Y39	Z39	X40	Y40	Z40	X41	Y41	Z41	X42	Y42	Z42	X43	Y43	Z43	X44	Y44	Z44	X45	Y45	Z45	X46	Y46	Z46	X47	Y47	Z47	X48	Y48	Z48	
250	1.2500	616.308330	1350.043561	-174.524041	587.229665	1337.815129	-491.216773	550.915176	1428.263774	-333.090702	560.402442	1262.653231	-320.569491	621.061133	1086.668981	-41.237328	733.255966	853.470689	-80.141521	538.164255	1052.015265	-584.240505	712.165341	889.701087	-477.447281	22.689381	1236.225587	-273.188181	189.712569	1220.272619	-451.298910	182.986679	1234.364622	-123.329733	216.896675	1174.340790	-454.491883	200.367438	1182.323387	-146.073753	51.448787	1274.404743	-223.992866	51.998781	1269.370936	-330.832930	125.021085	1125.791595	-82.079068	124.258637	1093.120911	-459.788155	225.497725	1033.659111	-74.860364	286.979798	979.496736	-85.556836	349.829691	915.871792	-97.089368	320.824476	1017.587106	-106.522443	385.837430	809.010370	-117.034187	295.950502	734.529084	-77.928154	233.779338	676.687297	-79.063207	162.149538	623.781700	-86.954043	262.510922	643.830049	-120.723994	55.835006	550.116805	-101.365166	98.032314	535.687999	-179.744383	3.692771	551.561102	-156.027211	190.457453	350.920740	-145.140659	95.476244	401.475752	-77.717372	188.229531	958.030674	-415.408343	273.493144	920.569732	-464.380146	280.632915	951.519580	-443.922683	298.154776	850.085466	-425.939478	363.012889	743.391506	-403.432903	316.981334	642.683641	-444.259234	305.189411	556.980117	-440.245189	290.315700	472.960596	-431.345964	357.136214	552.131827	-408.222048	265.655570	344.970404	-419.476388	283.997073	306.288864	-317.740674	227.385299	303.597536	-374.808638	491.562460	268.350610	-383.761539	386.410076	255.126128	-451.800960	-229.402455	890.462915	-256.684301	-22.916510	80.170666	-456.470025	-22.780223	80.238983	-56.243913	
251	1.2550	617.610717	1350.274607	-174.921001	588.960153	1337.788610	-491.626067	552.429193	1428.540110	-333.919014	561.836407	1263.017495	-321.013101	621.655794	1086.885765	-41.111732	733.452041	853.450928	-80.209788	539.779630	1051.794055	-584.483613	712.626958	889.242066	-476.829107	24.558041	1235.763634	-274.702705	191.795352	1219.483838	-452.742106	184.274638	1235.458862	-124.357689	219.344013	1173.815893	-455.405263	201.850953	1183.102620	-146.880071	52.936706	1274.247994	-225.606045	53.918877	1268.628542	-332.364929	126.796339	1126.818880	-82.669054	126.604572	1092.144467	-460.093266	227.744956	1035.062877	-75.347130	289.665702	981.342093	-85.764183	353.045236	918.195055	-96.998368	323.277817	1019.699236	-106.692993	389.744851	811.530842	-116.771284	299.559661	737.426835	-77.764683	237.050350	679.924052	-78.961670	165.108390	627.375675	-86.905281	265.682195	646.832003	-120.527129	58.567839	554.550481	-101.604115	101.968798	539.905524	-179.554401	6.405272	555.848546	-156.430370	192.372795	354.626428	-145.137499	97.555706	405.548969	-77.694589	190.801330	959.294060	-414.943074	270.366007	922.919063	-470.032293	282.434923	950.129756	-444.023507	299.363860	848.561790	-426.287872	363.853588	741.322301	-403.476436	317.705603	640.607856	-444.504589	305.830105	554.866542	-440.453475	290.964704	470.906397	-431.634774	357.727709	550.019432	-408.307654	265.721293	343.170832	-419.823487	282.265543	300.749334	-316.837293	223.593227	305.742663	-377.621708	490.759516	262.511358	-383.455694	385.416482	251.278762	-451.793036	-229.386172	890.467694	-256.663328	-22.884886	80.117305	-456.464635	-22.769590	80.245581	-56.232940	
252	1.2600	618.779668	1350.578973	-175.309856	590.765681	1337.836194	-492.136145	553.864347	1428.852659	-334.662841	563.165216	1263.261186	-321.631102	622.299610	1087.015263	-41.126267	733.713481	853.435136	-80.265269	541.378523	1051.496811	-584.559982	713.064978	888.653501	-476.137665	26.410140	1235.083760	-276.156455	193.907294	1218.391459	-454.160875	185.554623	1236.373117	-125.403891	221.690126	1172.848250	-456.140644	203.400032	1183.803098	-147.726512	54.365614	1273.874618	-227.252402	55.786456	1267.731049	-333.980343	128.604078	1127.718780	-83.240526	129.054670	1091.004634	-460.480496	230.017692	1036.358841	-75.759260	292.465999	983.146460	-85.873652	356.313589	920.478741	-96.916377	325.741464	1021.566231	-106.878016	393.761169	813.976309	-116.425208	303.249092	740.272225	-77.632285	240.438493	683.136958	-78.864883	168.193294	630.984181	-86.849704	268.626634	649.905793	-120.508291	61.197341	558.479614	-101.452364	104.401476	543.738345	-179.599255	9.086229	559.869341	-157.212863	194.425417	358.382385	-145.127357	99.802488	409.617413	-77.695343	191.513551	959.820287	-419.368597	267.547952	922.999553	-472.318733	284.397008	948.593861	-444.208207	300.810397	846.909930	-426.599334	364.870675	739.110396	-403.494563	318.599841	638.477071	-444.718980	306.565352	552.683423	-440.607136	291.638063	468.730138	-431.808237	358.425033	547.888205	-408.314069	265.906413	341.249481	-419.813467	280.463035	295.255454	-315.927967	220.288920	307.448259	-380.024075	489.825756	256.659193	-383.105761	384.331023	247.431596	-451.783298	-229.377364	890.482287	-256.624638	-22.867460	80.140982	-456.448434	-22.752998	80.234610	-56.221793	
253	1.2650	619.887209	1350.771167	-175.811752	592.390406	1337.869211	-492.498306	555.269821	1429.216695	-335.396729	564.537545	1263.608476	-322.176956	623.016259	1087.098372	-41.268127	733.940692	853.410590	-80.374254	543.181262	1051.101750	-584.602437	713.534973	887.993011	-475.372648	28.311260	1234.152255	-277.805264	196.090154	1217.051620	-455.569300	186.752376	1237.210207	-126.515397	224.206911	1171.826368	-456.981659	204.914112	1184.377377	-148.583410	55.795829	1273.289642	-228.992898	57.643215	1266.651292	-335.647854	130.402242	1128.412046	-83.910229	131.638689	1089.603067	-460.831308	232.353094	1037.581972	-76.141458	295.256756	984.825854	-85.910578	359.697137	922.644801	-96.791224	328.301880	1023.492869	-106.947600	397.887302	816.374426	-116.039640	307.031380	743.134508	-77.405996	243.912860	686.278058	-78.694840	171.466361	634.549405	-86.744076	271.993894	652.856000	-120.297613	64.113096	562.617816	-101.310794	106.542933	547.182422	-179.423065	12.054373	564.231895	-158.081786	196.584597	362.089764	-145.180039	102.195293	413.681539	-77.726180	192.301954	960.269965	-424.150760	265.106906	921.231916	-471.931370	286.598984	946.904056	-444.460581	302.458771	845.107760	-426.870684	365.836261	737.081729	-403.371896	319.578404	636.201987	-444.814118	307.346042	550.403012	-440.716618	292.366960	466.522537	-431.975319	359.084371	545.759471	-408.308910	266.063557	339.241560	-419.780251	278.593487	289.820538	-315.018283	217.784094	308.429284	-381.790921	488.722197	250.730981	-382.865059	383.129842	243.657363	-451.748647	-229.369767	890.475150	-256.541722	-22.849186	80.161977	-456.433508	-22.736859	80.247639	-56.210932	
254	1.2700	620.885188	1351.029431	-176.234546	594.017794	1337.943926	-492.992437	556.655772	1429.648802	-336.122591	565.780060	1263.926451	-322.813455	623.812702	1087.109031	-41.632185	734.156415	853.408636	-80.513882	544.978300	1050.787909	-584.589559	714.023726	887.131018	-474.610419	29.557149	1233.565952	-278.744422	198.348293	1215.477734	-457.045238	187.970994	1237.844049	-127.588830	226.676476	1170.679474	-457.735090	206.441731	1184.863107	-149.470683	57.226053	1272.527832	-230.792166	59.527168	1265.373230	-337.410716	132.174240	1128.932567	-84.784715	134.339895	1088.056996	-461.268193	234.686790	1038.635000	-76.440903	298.139765	986.374870	-85.922716	363.137519	924.733745	-96.491222	330.878391	1025.302251	-106.954441	402.115923	818.809963	-115.577393	310.906442	745.974116	-77.068795	247.531501	689.415686	-78.498818	174.788676	638.071631	-86.698706	275.542664	655.816170	-119.977552	67.034672	566.673964	-101.292237	109.309480	550.809292	-179.361917	14.846050	568.170283	-158.205252	198.876232	365.829031	-145.267886	104.677060	417.720699	-77.760491	192.977886	960.659990	-428.979523	263.110857	918.036805	-469.562134	288.869597	944.992090	-444.610704	304.276966	843.132035	-427.094661	366.971290	734.519353	-403.314600	320.515127	633.739867	-444.917997	308.150860	548.065118	-440.901123	293.013063	464.235410	-432.094598	359.681667	543.562785	-408.293006	265.757303	337.529006	-420.259346	276.660774	284.457989	-314.113860	216.172504	308.593617	-382.870316	487.484429	244.892639	-382.559752	381.868184	239.865974	-451.722395	-229.343802	890.486288	-256.487907	-22.827279	80.182499	-456.416888	-22.729523	80.239583	-56.210856	
255	1.2750	621.742239	1351.374160	-176.678561	595.524718	1338.133039	-493.548307	558.024006	1430.153292	-336.836144	567.084064	1264.445655	-323.418651	624.615719	1087.046943	-42.135148	734.316877	853.456321	-80.670846	546.916695	1050.398257	-584.463001	714.610009	886.290374	-473.659059	31.399743	1232.193088	-280.413650	200.541945	1213.723996	-458.512900	189.130253	1238.364899	-128.708335	229.311487	1169.394136	-458.667865	207.926609	1185.278109	-150.363094	58.628786	1271.562081	-232.688968	61.476491	1263.798398	-339.238922	133.940168	1129.335641	-85.521129	137.070111	1086.285624	-461.688055	237.093474	1039.491189	-76.696020	301.078536	987.840113	-85.824068	366.694625	926.747140	-96.126512	333.541749	1027.025040	-106.839054	406.414092	821.154162	-115.086401	314.879796	748.760647	-76.798841	250.893482	692.521599	-78.478013	178.241070	641.484709	-86.667842	279.127773	658.696255	-119.747140	69.949942	570.782280	-101.148515	112.473275	554.537076	-179.158768	17.916755	572.424751	-158.102384	201.261176	369.442828	-145.249196	107.242616	421.703188	-77.750346	193.998074	960.396488	-433.055443	261.627734	913.834874	-465.902868	291.121795	942.874267	-444.854441	306.168964	840.968371	-427.300721	368.075968	731.970377	-403.387131	321.288137	631.196798	-445.296559	308.855394	545.635895	-440.986035	293.548556	461.858246	-432.218100	360.352218	541.116972	-408.281569	265.711941	335.391943	-420.206271	274.668865	279.181152	-313.220260	215.424766	307.905704	-383.284550	486.012028	239.111289	-382.295640	380.487312	236.103324	-451.689104	-229.297670	890.495153	-256.460989	-22.808367	80.198541	-456.404523	-22.686924	80.239634	-56.201544	
256	1.2800	622.556414	1351.824994	-176.904078	596.917863	1338.415498	-494.006516	559.373286	1430.741738	-337.527307	568.357355	1264.924726	-324.059130	625.283304	1087.005968	-42.778319	734.425103	853.530039	-80.881584	548.868431	1050.095307	-584.294961	715.219634	885.298954	-472.678017	33.332282	1230.651347	-282.228060	202.794283	1211.782511	-459.917312	190.196309	1238.743224	-129.860415	231.913937	1167.954349	-459.400795	209.441838	1185.529040	-151.230980	60.048175	1270.460172	-234.591001	63.410251	1262.121799	-341.062931	135.650277	1129.525260	-86.278202	139.941675	1084.278751	-462.148905	239.494397	1040.235559	-76.824541	304.049354	989.143296	-85.574359	370.276215	928.728344	-95.675619	336.215201	1028.665310	-106.634848	410.743087	823.562533	-114.529520	318.973493	751.585090	-76.483564	254.653239	695.703143	-78.227808	181.784752	645.042449	-86.521785	282.865615	661.633416	-119.338071	73.282817	574.964149	-100.934380	115.418517	559.297281	-180.357042	20.858574	576.731480	-157.826650	203.872502	373.095451	-145.261404	110.038238	425.736342	-77.818887	191.704605	964.914116	-458.253084	260.725464	909.046775	-461.645564	293.411820	940.635828	-445.099362	308.091161	838.601087	-427.475767	369.255090	729.290299	-403.415045	322.244906	628.703889	-445.536527	309.501298	543.111466	-441.076500	294.016582	459.338138	-432.363745	361.236628	537.945971	-408.343052	265.501345	333.252993	-420.178073	272.621636	274.003339	-312.343068	215.105634	306.736411	-383.352442	484.368017	233.322895	-382.121448	378.990546	232.327407	-451.639103	-229.272303	890.510180	-256.440639	-22.790254	80.208986	-456.396544	-22.675231	80.256744	-56.205000	
